<svg width="21" height="20" viewBox="0 0 21 20" fill="none" xmlns="http://www.w3.org/2000/svg"><style>path { stroke: currentColor; }</style>
<path class="eye-strike-through" d="M4.29309 3.125L16.8862 16.875" stroke-width="1.5" stroke-linecap="round" stroke-linejoin="round"/>
<path d="M12.7074 12.3123C12.0895 12.8697 11.2739 13.1607 10.4399 13.1212C9.60595 13.0818 8.82191 12.7151 8.26028 12.1019C7.69864 11.4886 7.40541 10.6791 7.44509 9.85126C7.48476 9.02344 7.8541 8.24516 8.47185 7.68762" stroke-width="1.5" stroke-linecap="round" stroke-linejoin="round"/>
<path d="M6.33903 5.35889C3.13022 6.97182 1.77448 10 1.77448 10C1.77448 10 4.29309 15.6244 10.5896 15.6244C12.0649 15.6361 13.5218 15.2988 14.8396 14.6405" stroke-width="1.5" stroke-linecap="round" stroke-linejoin="round"/>
<path d="M16.9341 13.2109C18.6501 11.6853 19.4048 10 19.4048 10C19.4048 10 16.8862 4.3744 10.5896 4.3744C10.0443 4.37352 9.4998 4.41753 8.96179 4.50598" stroke-width="1.5" stroke-linecap="round" stroke-linejoin="round"/>
<path d="M11.1821 6.9303C11.8512 7.05784 12.4607 7.3973 12.919 7.89775C13.3773 8.3982 13.6598 9.03267 13.7241 9.70598" stroke-width="1.5" stroke-linecap="round" stroke-linejoin="round"/>
</svg>
