<svg width="147" height="29" viewBox="0 0 147 29" fill="none" xmlns="http://www.w3.org/2000/svg">
<path d="M31.2095 0.00752591V1.37327C30.716 1.49049 30.231 1.64229 29.758 1.82765C29.4882 1.94438 29.2438 2.11462 29.039 2.32841C28.8122 2.5975 28.6577 2.92179 28.5905 3.26976C28.4683 3.90698 28.4163 4.55614 28.4356 5.2051V28.2586H21.912L10.3593 12.159C8.80258 9.98079 7.6555 8.26996 6.9181 7.02649H6.67844C6.84968 9.99331 6.9353 13.125 6.9353 16.4214V23.0849C6.90395 23.8148 6.96886 24.5457 7.12826 25.258C7.24457 25.6555 7.4887 26.0016 7.82142 26.2407C8.40589 26.5746 9.04588 26.7957 9.70918 26.8929V28.2586H0V26.8816C0.514 26.78 1.01701 26.6274 1.50185 26.426C1.83495 26.2893 2.12099 26.0554 2.32406 25.7537C2.51741 25.4296 2.63592 25.0649 2.67063 24.6872C2.72785 24.1514 2.75371 23.6126 2.74807 23.0736V5.17255C2.77632 4.45436 2.7202 3.73527 2.58092 3.03065C2.46552 2.63238 2.22068 2.28591 1.88654 2.048C1.30689 1.69854 0.666223 1.46683 0 1.36574V0H10.4023L19.497 12.7248C20.0624 13.5243 20.7998 14.6092 21.7092 15.9795C22.6187 17.3499 23.4233 18.6397 24.123 19.8489H24.5347C24.3455 16.5516 24.2508 12.951 24.2508 9.04694V5.19758C24.2712 4.54662 24.23 3.89515 24.1279 3.25222C24.0726 2.91954 23.9356 2.60651 23.7297 2.34216C23.5288 2.11979 23.2837 1.94355 23.0108 1.82517C22.5243 1.62868 22.0217 1.4766 21.5089 1.37075V0.00500454L31.2095 0.00752591Z" fill="#666666"/>
<path d="M49.3226 7.40702V12.2641H47.3095C47.1092 11.5804 46.8329 10.9223 46.4861 10.3025C46.2767 9.97692 46.0014 9.70075 45.6786 9.49254C45.1799 9.25542 44.6297 9.15282 44.0809 9.1946H40.8756V16.529H42.815C43.1626 16.5458 43.5092 16.4802 43.8277 16.3375C44.0911 16.195 44.3055 15.974 44.4422 15.7041C44.6535 15.267 44.8092 14.8043 44.9056 14.3271H46.566V20.5274H44.9056C44.8107 20.0589 44.6579 19.6047 44.4508 19.1754C44.3176 18.9018 44.1115 18.6719 43.856 18.5119C43.532 18.3598 43.1761 18.2914 42.8199 18.3129H40.8756V26.4673H44.0637C44.3544 26.4719 44.6448 26.4493 44.9314 26.3997C45.1538 26.358 45.3675 26.2775 45.5631 26.1618C45.763 26.0375 45.9436 25.8835 46.0989 25.7049C46.2697 25.5114 46.422 25.3018 46.5537 25.079C46.7148 24.7952 46.8545 24.4993 46.9715 24.1939C47.1605 23.6993 47.3226 23.1945 47.457 22.6818H49.4701L49.1911 28.2561H34.7478V27.2484C35.0457 27.1722 35.3343 27.0622 35.6081 26.9204C35.8109 26.8113 35.9754 26.6407 36.0788 26.4322C36.192 26.1818 36.259 25.9124 36.2767 25.6373C36.3054 25.3168 36.3201 24.9125 36.3209 24.4243V11.2551C36.3209 10.7756 36.3086 10.3788 36.2841 10.0483C36.2718 9.77316 36.2067 9.50307 36.0923 9.25343C35.9862 9.04415 35.8232 8.87035 35.6229 8.75271C35.3473 8.59962 35.053 8.48431 34.7478 8.40973V7.40076L49.3226 7.40702Z" fill="#666666"/>
<path d="M65.0736 11.2401C65.0895 10.7063 65.0578 10.1721 64.979 9.64403C64.9302 9.36989 64.8017 9.11698 64.6103 8.91799C64.2893 8.66983 63.9175 8.49863 63.5226 8.41723V7.40827H69.9872V8.41723C69.6968 8.4937 69.416 8.60377 69.1502 8.74524C68.9492 8.85671 68.7853 9.02666 68.6795 9.23343C68.5606 9.48221 68.4905 9.75223 68.473 10.0284C68.4444 10.348 68.4296 10.7523 68.4288 11.2414V20.7852C68.4481 21.8493 68.3496 22.9121 68.1351 23.9536C67.9742 24.7233 67.6646 25.4526 67.2244 26.0992C66.8183 26.6748 66.2946 27.154 65.6893 27.5038C65.0467 27.8719 64.3492 28.1303 63.6246 28.2686C62.7767 28.4283 61.9157 28.5046 61.0535 28.4965C59.8625 28.5232 58.6741 28.3718 57.5262 28.0471C56.6479 27.7952 55.8433 27.3285 55.1825 26.6876C54.5725 26.0699 54.1143 25.3141 53.8453 24.4819C53.5258 23.3978 53.3793 22.2684 53.4115 21.137V11.2564C53.4115 10.7769 53.398 10.3801 53.3746 10.0496C53.3624 9.77444 53.2972 9.50437 53.1829 9.25471C53.0766 9.04514 52.9132 8.87128 52.7122 8.75399C52.4371 8.6008 52.1433 8.48547 51.8384 8.41101V7.40204H59.5516V8.41101C59.2399 8.48548 58.9405 8.60608 58.6631 8.769C58.4826 8.88491 58.3334 9.04501 58.2292 9.23469C58.1188 9.45926 58.0488 9.70222 58.0228 9.95198C57.9766 10.383 57.9569 10.8166 57.9638 11.2501V21.3286C57.9591 22.0644 58.0084 22.7996 58.1113 23.528C58.1877 24.1237 58.3692 24.7005 58.6471 25.2305C58.8961 25.693 59.2713 26.0722 59.7274 26.3221C60.2805 26.5954 60.8916 26.7245 61.5058 26.6976C62.299 26.7598 63.0886 26.5385 63.7389 26.0717C64.2544 25.6113 64.6161 24.9987 64.7737 24.3191C65.0096 23.2191 65.1108 22.0934 65.0748 20.968L65.0736 11.2401Z" fill="#666666"/>
<path d="M80.1942 28.2524H72.481V27.2447C72.7789 27.1687 73.0675 27.0587 73.3413 26.9167C73.5444 26.8081 73.709 26.6373 73.812 26.4285C73.926 26.1783 73.9935 25.9088 74.0111 25.6336C74.0398 25.3131 74.0545 24.9087 74.0553 24.4205V11.2551C74.0553 10.7757 74.043 10.3789 74.0185 10.0484C74.0062 9.77319 73.9411 9.50311 73.8267 9.25346C73.7204 9.04389 73.557 8.87003 73.356 8.75274C73.0809 8.59955 72.7871 8.48422 72.4822 8.40976V7.40079H81.0484C82.0373 7.38534 83.0253 7.46918 83.998 7.65113C84.7401 7.79616 85.4559 8.05622 86.1205 8.42225C86.6141 8.69509 87.0528 9.06036 87.4134 9.49884C87.774 9.94783 88.0506 10.4604 88.2295 11.011C88.4305 11.6586 88.5272 12.3349 88.5159 13.0139C88.5389 13.897 88.3654 14.7739 88.0083 15.5789C87.6889 16.2684 87.2219 16.8762 86.6416 17.3578C85.9391 17.9086 85.1653 18.3581 84.3421 18.6935V18.8474C85.028 19.1449 85.6423 19.5903 86.1426 20.1531C86.6666 20.7763 87.0996 21.4732 87.4282 22.2224L88.3536 24.2991C88.6617 25.051 89.0758 25.7532 89.5826 26.3834C89.9555 26.8268 90.4666 27.126 91.0304 27.2309V28.2386H85.377C84.6286 27.0905 83.9844 25.8754 83.4523 24.6083L82.3057 21.997C82.0694 21.4172 81.7741 20.8642 81.4245 20.3471C81.2292 20.0645 80.9699 19.8339 80.6686 19.6749C80.2859 19.5318 79.8786 19.4696 79.4716 19.4921H78.6199V24.4155C78.603 24.9517 78.6371 25.4884 78.7219 26.0179C78.7764 26.298 78.9152 26.5539 79.1188 26.7502C79.4408 26.9933 79.812 27.16 80.2053 27.2384L80.1942 28.2524ZM78.6076 9.2247V17.7158H80.0615C80.7229 17.7377 81.382 17.6263 82.0009 17.3878C82.4764 17.1948 82.8945 16.879 83.2139 16.4715C83.518 16.0655 83.7281 15.5948 83.8284 15.0945C83.945 14.5218 84.0014 13.9381 83.9968 13.3532C84.0807 12.2314 83.7449 11.1187 83.0566 10.2387C82.6902 9.87406 82.2518 9.59298 81.7706 9.41407C81.2894 9.23515 80.7764 9.16247 80.2655 9.2009C79.424 9.19672 78.871 9.20467 78.6064 9.2247H78.6076Z" fill="#666666"/>
<path d="M100.513 28.4977C99.3074 28.5882 98.0969 28.3986 96.9732 27.9433C95.8496 27.4879 94.8421 26.7786 94.0267 25.8689C92.5822 24.1164 91.86 21.4951 91.86 18.005C91.8077 15.9947 92.1651 13.9952 92.9096 12.1327C93.5347 10.599 94.6161 9.30354 96.0018 8.42855C97.4756 7.55362 99.1597 7.11448 100.865 7.16045C102.087 7.06822 103.314 7.25564 104.455 7.709C105.597 8.16236 106.624 8.87014 107.462 9.7805C108.931 11.5264 109.666 14.1197 109.666 17.5606C109.699 19.237 109.479 20.9086 109.012 22.5166C108.644 23.7739 108.009 24.9336 107.153 25.914C106.359 26.7932 105.369 27.4637 104.266 27.8681C103.061 28.3012 101.791 28.5143 100.513 28.4977ZM96.5327 17.5944C96.4065 19.9337 96.7697 22.2737 97.5982 24.4594C97.8502 25.1283 98.2971 25.7027 98.8788 26.1055C99.4605 26.5082 100.149 26.7201 100.853 26.7127C101.546 26.7332 102.226 26.5094 102.776 26.0792C103.343 25.607 103.785 24.9982 104.062 24.3079C104.417 23.4466 104.654 22.5398 104.767 21.6127C104.915 20.4786 104.986 19.3355 104.98 18.1915C105.01 16.4814 104.855 14.7731 104.516 13.0978C104.315 11.9612 103.835 10.8949 103.12 9.99833C102.821 9.65739 102.452 9.38707 102.04 9.20631C101.627 9.02556 101.181 8.93872 100.732 8.95181C100.057 8.93939 99.3938 9.1346 98.8293 9.51201C98.2647 9.88942 97.825 10.4315 97.5675 11.0674C96.76 13.1399 96.4068 15.3671 96.5327 17.5931V17.5944Z" fill="#666666"/>
<path d="M130.442 7.40704V8.41601C130.157 8.50402 129.88 8.61621 129.613 8.75147C129.452 8.84301 129.312 8.96797 129.201 9.11825C129.067 9.32812 128.979 9.56522 128.944 9.81304C128.875 10.2857 128.845 10.7636 128.857 11.2414V28.2536H125.124L118.512 16.3726C117.621 14.7644 116.965 13.5022 116.546 12.5858H116.414C116.512 14.7748 116.561 17.0861 116.561 19.5197V24.4368C116.543 24.9738 116.58 25.5112 116.671 26.0404C116.729 26.3175 116.867 26.5706 117.068 26.7665C117.389 27.0057 117.758 27.1698 118.149 27.2472V28.2549H112.595V27.2472C112.894 27.1715 113.183 27.0588 113.455 26.9117C113.658 26.7975 113.822 26.6228 113.926 26.411C114.039 26.1639 114.106 25.8979 114.125 25.626C114.153 25.3106 114.168 24.9133 114.169 24.4343V11.2251C114.185 10.6962 114.153 10.1669 114.073 9.64403C114.016 9.36663 113.878 9.11344 113.676 8.91799C113.359 8.66875 112.99 8.49736 112.597 8.41723V7.40826H118.548L123.749 16.7969C124.077 17.3878 124.498 18.1865 125.014 19.1929C125.529 20.1994 125.99 21.1516 126.395 22.0496H126.63C126.522 19.6161 126.468 16.9588 126.469 14.078V11.2376C126.479 10.7578 126.455 10.2778 126.395 9.80177C126.366 9.56422 126.288 9.33557 126.167 9.13078C126.06 8.97345 125.919 8.84256 125.756 8.74772C125.482 8.60562 125.193 8.49317 124.896 8.41223V7.40326L130.442 7.40704Z" fill="#666666"/>
<path d="M134.91 23.1061C135.058 24.1106 135.484 25.0513 136.139 25.8176C136.477 26.1328 136.875 26.3745 137.308 26.528C137.741 26.6814 138.201 26.7434 138.658 26.7101C139.193 26.7194 139.723 26.6159 140.216 26.406C140.676 26.2013 141.062 25.8572 141.322 25.4207C141.618 24.9047 141.762 24.3138 141.74 23.717C141.754 23.1506 141.638 22.5888 141.401 22.0759C141.135 21.5623 140.764 21.1122 140.315 20.7552C139.664 20.2415 138.964 19.7965 138.225 19.427C137.51 19.0596 136.819 18.6465 136.155 18.1902C135.569 17.7917 135.038 17.317 134.574 16.7782C134.146 16.2773 133.804 15.7069 133.561 15.0907C133.313 14.4333 133.191 13.7334 133.201 13.029C133.167 11.8963 133.48 10.7809 134.097 9.83807C134.745 8.92283 135.649 8.22787 136.69 7.84393C137.948 7.36807 139.282 7.13748 140.623 7.16419C141.458 7.16211 142.292 7.21102 143.121 7.31066C144.035 7.42924 144.943 7.59974 145.839 7.82139V12.2466H143.826C143.69 11.5731 143.45 10.9261 143.113 10.33C142.855 9.88627 142.482 9.524 142.034 9.28352C141.541 9.06708 141.01 8.95295 140.473 8.94779C139.935 8.94263 139.402 9.04657 138.905 9.25349C138.478 9.44624 138.115 9.76214 137.862 10.1623C137.597 10.5999 137.464 11.1069 137.479 11.6207C137.466 12.152 137.58 12.6786 137.81 13.1554C138.086 13.6536 138.463 14.0859 138.916 14.4235C139.629 14.9589 140.386 15.4313 141.179 15.8356C142.197 16.3601 143.151 17.0037 144.023 17.7533C144.684 18.3143 145.21 19.0226 145.56 19.8235C145.91 20.6244 146.075 21.4965 146.042 22.3726C146.069 23.5162 145.778 24.6444 145.204 25.6273C144.623 26.5729 143.772 27.3154 142.765 27.7554C141.598 28.27 140.335 28.5228 139.064 28.4965C138.021 28.4941 136.979 28.4357 135.942 28.3212C134.916 28.2138 133.898 28.0428 132.893 27.8092V23.1049L134.91 23.1061Z" fill="#666666"/>
</svg>
